# xmcd CD database file
#
# Track frame offsets:
#	150
#	28261
#	68927
#	103551
#	129071
#	156537
#	178655
#	208188
#	234307
#	258825
#
# Disc length: 3672 seconds
#
# Revision: 0
# Processed by: cddbd v1.5.2PL0 Copyright (c) Steve Scherf et al.
# Submitted via: CDex 1.51
#
DISCID=870e560a
DTITLE=Yellowjacket - Greenhouse
DYEAR=1991
DGENRE=Jazz
TTITLE0=Freedomland
TTITLE1=Greenhouse
TTITLE2=Seven stars
TTITLE3=Indian summer
TTITLE4=Spirits
TTITLE5=Brown zone
TTITLE6=Liam - Rain dance
TTITLE7=Invisible people
TTITLE8=Freda
TTITLE9=Peace
EXTD=YEAR: 1991
EXTT0=
EXTT1=
EXTT2=
EXTT3=
EXTT4=
EXTT5=
EXTT6=
EXTT7=
EXTT8=
EXTT9=
PLAYORDER=
